<svg xmlns="http://www.w3.org/2000/svg" xmlns:xlink="http://www.w3.org/1999/xlink" width="501" zoomAndPan="magnify" viewBox="0 0 375.75 102.749999" height="137" preserveAspectRatio="xMidYMid meet" version="1.0"><defs><g/><clipPath id="ea4e723c39"><path d="M 0.332031 21.472656 L 65.421875 21.472656 L 65.421875 56.636719 L 0.332031 56.636719 Z M 0.332031 21.472656 " clip-rule="nonzero"/></clipPath><clipPath id="cd36153e26"><path d="M 12.382812 60.894531 L 53.617188 60.894531 L 53.617188 65.878906 L 12.382812 65.878906 Z M 12.382812 60.894531 " clip-rule="nonzero"/></clipPath><clipPath id="f121167bd0"><path d="M 0.382812 0.894531 L 41.617188 0.894531 L 41.617188 5.878906 L 0.382812 5.878906 Z M 0.382812 0.894531 " clip-rule="nonzero"/></clipPath><clipPath id="a2a5a623d2"><rect x="0" width="42" y="0" height="6"/></clipPath><clipPath id="347c72912b"><path d="M 22.660156 70.09375 L 43.339844 70.09375 L 43.339844 75.078125 L 22.660156 75.078125 Z M 22.660156 70.09375 " clip-rule="nonzero"/></clipPath><clipPath id="cc450ce889"><path d="M 0.660156 0.09375 L 21.339844 0.09375 L 21.339844 5.078125 L 0.660156 5.078125 Z M 0.660156 0.09375 " clip-rule="nonzero"/></clipPath><clipPath id="8a2e6a2032"><rect x="0" width="22" y="0" height="6"/></clipPath><clipPath id="17b8275bb8"><rect x="0" width="281" y="0" height="84"/></clipPath></defs><g clip-path="url(#ea4e723c39)"><path fill="#ffc854" d="M 65.648438 51.765625 L 45.25 51.765625 L 64.183594 44.191406 L 62.433594 39.800781 L 42.796875 47.65625 L 57.746094 32.707031 L 54.40625 29.367188 L 39.988281 43.789062 L 48.019531 25.046875 L 43.679688 23.183594 L 35.355469 42.613281 L 35.355469 21.472656 L 30.632812 21.472656 L 30.632812 41.867188 L 23.058594 22.929688 L 18.667969 24.6875 L 26.523438 44.316406 L 11.574219 29.367188 L 8.234375 32.707031 L 22.660156 47.132812 L 3.914062 39.097656 L 2.050781 43.441406 L 21.480469 51.765625 L 0.339844 51.765625 L 0.339844 56.488281 L 65.648438 56.488281 Z M 65.648438 51.765625 " fill-opacity="1" fill-rule="nonzero"/></g><g clip-path="url(#cd36153e26)"><g transform="matrix(1, 0, 0, 1, 12, 60)"><g clip-path="url(#a2a5a623d2)"><g clip-path="url(#f121167bd0)"><path fill="#ffc854" d="M 0.382812 0.894531 L 41.609375 0.894531 L 41.609375 5.878906 L 0.382812 5.878906 Z M 0.382812 0.894531 " fill-opacity="1" fill-rule="nonzero"/></g></g></g></g><g clip-path="url(#347c72912b)"><g transform="matrix(1, 0, 0, 1, 22, 70)"><g clip-path="url(#8a2e6a2032)"><g clip-path="url(#cc450ce889)"><path fill="#ffc854" d="M 0.660156 0.09375 L 21.332031 0.09375 L 21.332031 5.078125 L 0.660156 5.078125 Z M 0.660156 0.09375 " fill-opacity="1" fill-rule="nonzero"/></g></g></g></g><g transform="matrix(1, 0, 0, 1, 80, 8)"><g clip-path="url(#17b8275bb8)"><g fill="#ffc854" fill-opacity="1"><g transform="translate(0.327038, 61.925559)"><g><path d="M 18.71875 0 C 14.925781 0 12.015625 -0.972656 9.984375 -2.921875 C 7.953125 -4.878906 6.9375 -7.679688 6.9375 -11.328125 L 6.9375 -22.8125 L 1.140625 -22.8125 L 1.140625 -29.875 L 3.8125 -29.875 C 5.445312 -29.875 6.554688 -30.140625 7.140625 -30.671875 C 7.734375 -31.203125 8.140625 -32.226562 8.359375 -33.75 L 8.875 -37.609375 L 15.59375 -37.609375 L 15.59375 -29.875 L 23.78125 -29.875 L 23.78125 -22.8125 L 15.59375 -22.8125 L 15.59375 -12.640625 C 15.59375 -9.222656 17.257812 -7.515625 20.59375 -7.515625 L 24.1875 -7.515625 L 24.1875 0 Z M 18.71875 0 "/></g></g></g><g fill="#ffc854" fill-opacity="1"><g transform="translate(23.025148, 61.925559)"><g><path d="M 4.328125 0 L 4.328125 -42.109375 L 12.96875 -42.109375 L 12.96875 -27.59375 C 14.113281 -28.625 15.441406 -29.394531 16.953125 -29.90625 C 18.472656 -30.414062 20.066406 -30.671875 21.734375 -30.671875 C 25.609375 -30.671875 28.644531 -29.472656 30.84375 -27.078125 C 33.039062 -24.691406 34.140625 -21.414062 34.140625 -17.25 L 34.140625 0 L 25.5 0 L 25.5 -16.390625 C 25.5 -18.585938 24.972656 -20.285156 23.921875 -21.484375 C 22.878906 -22.679688 21.429688 -23.28125 19.578125 -23.28125 C 17.597656 -23.28125 16 -22.601562 14.78125 -21.25 C 13.570312 -19.90625 12.96875 -18.054688 12.96875 -15.703125 L 12.96875 0 Z M 4.328125 0 "/></g></g></g><g fill="#ffc854" fill-opacity="1"><g transform="translate(57.044786, 61.925559)"><g><path d="M 4.328125 0 L 4.328125 -29.875 L 12.96875 -29.875 L 12.96875 0 Z M 3.078125 -39.546875 C 3.078125 -41.140625 3.597656 -42.4375 4.640625 -43.4375 C 5.679688 -44.445312 7.019531 -44.953125 8.65625 -44.953125 C 10.320312 -44.953125 11.664062 -44.445312 12.6875 -43.4375 C 13.707031 -42.4375 14.21875 -41.140625 14.21875 -39.546875 C 14.21875 -37.953125 13.707031 -36.648438 12.6875 -35.640625 C 11.664062 -34.640625 10.320312 -34.140625 8.65625 -34.140625 C 7.019531 -34.140625 5.679688 -34.640625 4.640625 -35.640625 C 3.597656 -36.648438 3.078125 -37.953125 3.078125 -39.546875 Z M 3.078125 -39.546875 "/></g></g></g><g fill="#ffc854" fill-opacity="1"><g transform="translate(70.469506, 61.925559)"><g><path d="M 4.328125 0 L 4.328125 -29.875 L 10.75 -29.875 L 11.671875 -26.515625 C 12.878906 -27.921875 14.347656 -28.960938 16.078125 -29.640625 C 17.804688 -30.328125 19.65625 -30.671875 21.625 -30.671875 C 25.53125 -30.671875 28.59375 -29.457031 30.8125 -27.03125 C 33.03125 -24.601562 34.140625 -21.320312 34.140625 -17.1875 L 34.140625 0 L 25.5 0 L 25.5 -16.28125 C 25.5 -18.476562 24.972656 -20.191406 23.921875 -21.421875 C 22.878906 -22.660156 21.429688 -23.28125 19.578125 -23.28125 C 17.597656 -23.28125 16 -22.59375 14.78125 -21.21875 C 13.570312 -19.851562 12.96875 -18 12.96875 -15.65625 L 12.96875 0 Z M 4.328125 0 "/></g></g></g><g fill="#ffc854" fill-opacity="1"><g transform="translate(104.489143, 61.925559)"><g><path d="M 4.328125 0 L 4.328125 -42.109375 L 12.96875 -42.109375 L 12.96875 -19.125 L 15.1875 -19.125 C 17.007812 -19.125 18.382812 -19.414062 19.3125 -20 C 20.25 -20.59375 21 -21.722656 21.5625 -23.390625 L 23.671875 -29.875 L 33 -29.875 L 29.53125 -20.375 C 28.582031 -17.71875 27.3125 -15.6875 25.71875 -14.28125 L 34.3125 0 L 24.234375 0 L 17.640625 -11.375 L 12.96875 -11.375 L 12.96875 0 Z M 4.328125 0 "/></g></g></g><g fill="#ffc854" fill-opacity="1"><g transform="translate(136.403771, 61.925559)"><g/></g></g><g fill="#ffc854" fill-opacity="1"><g transform="translate(145.902936, 61.925559)"><g><path d="M 19 0.796875 C 15.707031 0.796875 12.796875 0.132812 10.265625 -1.1875 C 7.742188 -2.519531 5.769531 -4.367188 4.34375 -6.734375 C 2.925781 -9.109375 2.21875 -11.851562 2.21875 -14.96875 C 2.21875 -18.070312 2.925781 -20.800781 4.34375 -23.15625 C 5.769531 -25.507812 7.742188 -27.347656 10.265625 -28.671875 C 12.796875 -30.003906 15.707031 -30.671875 19 -30.671875 C 22.300781 -30.671875 25.210938 -30.003906 27.734375 -28.671875 C 30.265625 -27.347656 32.226562 -25.507812 33.625 -23.15625 C 35.03125 -20.800781 35.734375 -18.070312 35.734375 -14.96875 C 35.734375 -11.851562 35.03125 -9.109375 33.625 -6.734375 C 32.226562 -4.367188 30.265625 -2.519531 27.734375 -1.1875 C 25.210938 0.132812 22.300781 0.796875 19 0.796875 Z M 10.75 -14.96875 C 10.75 -12.539062 11.515625 -10.546875 13.046875 -8.984375 C 14.585938 -7.429688 16.570312 -6.65625 19 -6.65625 C 21.4375 -6.65625 23.410156 -7.429688 24.921875 -8.984375 C 26.441406 -10.546875 27.203125 -12.539062 27.203125 -14.96875 C 27.203125 -17.4375 26.441406 -19.4375 24.921875 -20.96875 C 23.410156 -22.507812 21.4375 -23.28125 19 -23.28125 C 16.570312 -23.28125 14.585938 -22.507812 13.046875 -20.96875 C 11.515625 -19.4375 10.75 -17.4375 10.75 -14.96875 Z M 10.75 -14.96875 "/></g></g></g><g fill="#ffc854" fill-opacity="1"><g transform="translate(179.979449, 61.925559)"><g><path d="M 12.921875 0 L 0.515625 -29.875 L 9.953125 -29.875 L 13.3125 -20.484375 L 17.296875 -10.359375 L 21.21875 -20.484375 L 24.640625 -29.875 L 34.03125 -29.875 L 21.5625 0 Z M 12.921875 0 "/></g></g></g><g fill="#ffc854" fill-opacity="1"><g transform="translate(210.64244, 61.925559)"><g><path d="M 18.4375 0.796875 C 15.25 0.796875 12.429688 0.132812 9.984375 -1.1875 C 7.535156 -2.519531 5.628906 -4.367188 4.265625 -6.734375 C 2.898438 -9.109375 2.21875 -11.851562 2.21875 -14.96875 C 2.21875 -18.070312 2.910156 -20.800781 4.296875 -23.15625 C 5.679688 -25.507812 7.597656 -27.347656 10.046875 -28.671875 C 12.492188 -30.003906 15.328125 -30.671875 18.546875 -30.671875 C 21.960938 -30.671875 24.910156 -29.910156 27.390625 -28.390625 C 29.878906 -26.878906 31.773438 -24.753906 33.078125 -22.015625 C 34.390625 -19.285156 34.953125 -16.101562 34.765625 -12.46875 L 10.8125 -12.46875 C 11.226562 -10.414062 12.140625 -8.847656 13.546875 -7.765625 C 14.953125 -6.679688 16.640625 -6.140625 18.609375 -6.140625 C 20.046875 -6.140625 21.363281 -6.414062 22.5625 -6.96875 C 23.757812 -7.519531 24.71875 -8.289062 25.4375 -9.28125 L 34.203125 -9.28125 C 32.910156 -6.125 30.878906 -3.65625 28.109375 -1.875 C 25.335938 -0.09375 22.113281 0.796875 18.4375 0.796875 Z M 10.875 -17.921875 L 26.40625 -17.921875 C 25.914062 -19.742188 24.992188 -21.175781 23.640625 -22.21875 C 22.296875 -23.257812 20.617188 -23.78125 18.609375 -23.78125 C 16.710938 -23.78125 15.070312 -23.257812 13.6875 -22.21875 C 12.300781 -21.175781 11.363281 -19.742188 10.875 -17.921875 Z M 10.875 -17.921875 "/></g></g></g><g fill="#ffc854" fill-opacity="1"><g transform="translate(243.694908, 61.925559)"><g><path d="M 4.328125 0 L 4.328125 -29.875 L 10.75 -29.875 L 11.890625 -25.890625 C 12.878906 -27.296875 14.09375 -28.3125 15.53125 -28.9375 C 16.976562 -29.5625 18.800781 -29.875 21 -29.875 L 24.234375 -29.875 L 24.234375 -22.015625 L 20.9375 -22.015625 C 18.476562 -22.015625 16.535156 -21.351562 15.109375 -20.03125 C 13.679688 -18.707031 12.96875 -16.429688 12.96875 -13.203125 L 12.96875 0 Z M 4.328125 0 "/></g></g></g><g fill="#ffc854" fill-opacity="1"><g transform="translate(265.994781, 61.925559)"><g><path d="M 7.625 0.625 C 6.070312 0.625 4.800781 0.140625 3.8125 -0.828125 C 2.820312 -1.796875 2.328125 -3.019531 2.328125 -4.5 C 2.328125 -5.976562 2.820312 -7.207031 3.8125 -8.1875 C 4.800781 -9.175781 6.070312 -9.671875 7.625 -9.671875 C 9.175781 -9.671875 10.445312 -9.175781 11.4375 -8.1875 C 12.425781 -7.207031 12.921875 -5.976562 12.921875 -4.5 C 12.921875 -3.019531 12.425781 -1.796875 11.4375 -0.828125 C 10.445312 0.140625 9.175781 0.625 7.625 0.625 Z M 7.625 0.625 "/></g></g></g></g></g></svg>